# xmcd CD database file
#
# Track frame offsets:
#	150
#	13417
#	25505
#	39320
#	53077
#	66305
#	79492
#	93307
#	106185
#	117020
#
# Disc length: 1724 seconds
#
# Revision: 3
# Processed by: cddbd v1.5.2PL0 Copyright (c) Steve Scherf et al.
# Submitted via: CDex 1.70beta2
#
DISCID=7706ba0a
DTITLE=Tucker, Tanya (USA-cty-98) - Super Hits
DYEAR=1998
DGENRE=Country
TTITLE0=Delta Dawn
TTITLE1=Love's The Answer
TTITLE2=What's Your Mama's Name
TTITLE3=Blood Red And Goin' Down
TTITLE4=The Jamestown Ferry
TTITLE5=The Man That Turned My Mama On
TTITLE6=I Believe The South Is Gonna Rise Again
TTITLE7=Greener Than The Grass (We Laid On)
TTITLE8=Would You Lay With Me (In A Field Of Stone)
TTITLE9=You Are So Beautiful
EXTD=YEAR: 1998
EXTT0=
EXTT1=
EXTT2=
EXTT3=
EXTT4=
EXTT5=
EXTT6=
EXTT7=
EXTT8=
EXTT9=
PLAYORDER=
